<mxfile host="app.diagrams.net" modified="2020-11-30T15:04:06.752Z" agent="5.0 (Windows NT 10.0; Win64; x64) AppleWebKit/537.36 (KHTML, like Gecko) Chrome/87.0.4280.67 Safari/537.36 Edg/87.0.664.47" etag="A_9UWDXrcw4BYHEru0MP" version="13.10.4" type="github">
  <diagram id="tB0IfrXO_8III00Q3soG" name="Page-1">
    <mxGraphModel dx="1038" dy="508" grid="1" gridSize="10" guides="1" tooltips="1" connect="1" arrows="1" fold="1" page="1" pageScale="1" pageWidth="827" pageHeight="1169" math="0" shadow="0">
      <root>
        <mxCell id="0" />
        <mxCell id="1" parent="0" />
        <mxCell id="2iThwFsMndZxWmJRYikl-11" value="" style="rounded=0;whiteSpace=wrap;html=1;fillColor=#ffe6cc;strokeColor=#d79b00;" vertex="1" parent="1">
          <mxGeometry x="210" y="470" width="410" height="290" as="geometry" />
        </mxCell>
        <mxCell id="2iThwFsMndZxWmJRYikl-10" value="服务描述" style="ellipse;whiteSpace=wrap;html=1;fillColor=#d5e8d4;strokeColor=#82b366;" vertex="1" parent="1">
          <mxGeometry x="460" y="484.5" width="60" height="40" as="geometry" />
        </mxCell>
        <mxCell id="2iThwFsMndZxWmJRYikl-12" value="&lt;font style=&quot;font-size: 16px&quot;&gt;服务消费者&lt;/font&gt;" style="shape=hexagon;perimeter=hexagonPerimeter2;whiteSpace=wrap;html=1;fixedSize=1;fillColor=#f8cecc;strokeColor=#b85450;" vertex="1" parent="1">
          <mxGeometry x="220" y="650" width="120" height="80" as="geometry" />
        </mxCell>
        <mxCell id="2iThwFsMndZxWmJRYikl-13" value="&lt;font style=&quot;font-size: 16px&quot;&gt;服务注册中心&lt;/font&gt;" style="shape=hexagon;perimeter=hexagonPerimeter2;whiteSpace=wrap;html=1;fixedSize=1;fillColor=#f8cecc;strokeColor=#b85450;" vertex="1" parent="1">
          <mxGeometry x="340" y="484.5" width="120" height="80" as="geometry" />
        </mxCell>
        <mxCell id="2iThwFsMndZxWmJRYikl-14" value="&lt;font style=&quot;font-size: 16px&quot;&gt;服务提供者&lt;/font&gt;" style="shape=hexagon;perimeter=hexagonPerimeter2;whiteSpace=wrap;html=1;fixedSize=1;fillColor=#f8cecc;strokeColor=#b85450;" vertex="1" parent="1">
          <mxGeometry x="440" y="650" width="120" height="80" as="geometry" />
        </mxCell>
        <mxCell id="2iThwFsMndZxWmJRYikl-15" value="" style="endArrow=classic;startArrow=classic;html=1;exitX=1;exitY=0.5;exitDx=0;exitDy=0;entryX=0;entryY=0.5;entryDx=0;entryDy=0;" edge="1" parent="1" source="2iThwFsMndZxWmJRYikl-12" target="2iThwFsMndZxWmJRYikl-14">
          <mxGeometry width="50" height="50" relative="1" as="geometry">
            <mxPoint x="330" y="280" as="sourcePoint" />
            <mxPoint x="380" y="230" as="targetPoint" />
          </mxGeometry>
        </mxCell>
        <mxCell id="2iThwFsMndZxWmJRYikl-16" value="" style="endArrow=classic;startArrow=classic;html=1;entryX=0;entryY=0.5;entryDx=0;entryDy=0;exitX=0.5;exitY=0;exitDx=0;exitDy=0;" edge="1" parent="1" source="2iThwFsMndZxWmJRYikl-12" target="2iThwFsMndZxWmJRYikl-13">
          <mxGeometry width="50" height="50" relative="1" as="geometry">
            <mxPoint x="230" y="160" as="sourcePoint" />
            <mxPoint x="280" y="110" as="targetPoint" />
          </mxGeometry>
        </mxCell>
        <mxCell id="2iThwFsMndZxWmJRYikl-17" value="" style="endArrow=classic;startArrow=classic;html=1;entryX=1;entryY=0.5;entryDx=0;entryDy=0;exitX=0.5;exitY=0;exitDx=0;exitDy=0;" edge="1" parent="1" source="2iThwFsMndZxWmJRYikl-14" target="2iThwFsMndZxWmJRYikl-13">
          <mxGeometry width="50" height="50" relative="1" as="geometry">
            <mxPoint x="470" y="160" as="sourcePoint" />
            <mxPoint x="520" y="110" as="targetPoint" />
          </mxGeometry>
        </mxCell>
        <mxCell id="2iThwFsMndZxWmJRYikl-19" value="服务" style="ellipse;whiteSpace=wrap;html=1;fillColor=#d5e8d4;strokeColor=#82b366;" vertex="1" parent="1">
          <mxGeometry x="550" y="650" width="60" height="30" as="geometry" />
        </mxCell>
        <mxCell id="2iThwFsMndZxWmJRYikl-20" value="服务描述" style="ellipse;whiteSpace=wrap;html=1;fillColor=#d5e8d4;strokeColor=#82b366;" vertex="1" parent="1">
          <mxGeometry x="550" y="700" width="60" height="30" as="geometry" />
        </mxCell>
        <mxCell id="2iThwFsMndZxWmJRYikl-22" value="&lt;font style=&quot;font-size: 16px&quot;&gt;发现&lt;/font&gt;" style="text;html=1;strokeColor=none;fillColor=none;align=center;verticalAlign=middle;whiteSpace=wrap;rounded=0;" vertex="1" parent="1">
          <mxGeometry x="270" y="565" width="40" height="20" as="geometry" />
        </mxCell>
        <mxCell id="2iThwFsMndZxWmJRYikl-23" value="&lt;font style=&quot;font-size: 16px&quot;&gt;发布&lt;/font&gt;" style="text;html=1;strokeColor=none;fillColor=none;align=center;verticalAlign=middle;whiteSpace=wrap;rounded=0;" vertex="1" parent="1">
          <mxGeometry x="470" y="565" width="40" height="20" as="geometry" />
        </mxCell>
        <mxCell id="2iThwFsMndZxWmJRYikl-24" value="&lt;font style=&quot;font-size: 16px&quot;&gt;绑定与调用&lt;/font&gt;" style="text;html=1;strokeColor=none;fillColor=none;align=center;verticalAlign=middle;whiteSpace=wrap;rounded=0;" vertex="1" parent="1">
          <mxGeometry x="350" y="670" width="90" height="20" as="geometry" />
        </mxCell>
      </root>
    </mxGraphModel>
  </diagram>
</mxfile>
